<?xml version="1.0" encoding="UTF-8" standalone="no"?>
<!-- Created with Inkscape (http://www.inkscape.org/) -->

<svg
   xmlns:dc="http://purl.org/dc/elements/1.1/"
   xmlns:cc="http://creativecommons.org/ns#"
   xmlns:rdf="http://www.w3.org/1999/02/22-rdf-syntax-ns#"
   xmlns:svg="http://www.w3.org/2000/svg"
   xmlns="http://www.w3.org/2000/svg"
   xmlns:sodipodi="http://sodipodi.sourceforge.net/DTD/sodipodi-0.dtd"
   xmlns:inkscape="http://www.inkscape.org/namespaces/inkscape"
   width="210mm"
   height="297mm"
   viewBox="0 0 744.09448819 1052.3622047"
   id="svg2"
   version="1.1"
   inkscape:version="0.91 r13725"
   sodipodi:docname="logo.svg">
  <defs
     id="defs4">
    <filter
       style="color-interpolation-filters:sRGB;"
       inkscape:label="Blur"
       id="filter6110">
      <feGaussianBlur
         stdDeviation="5 5"
         result="blur"
         id="feGaussianBlur6112" />
    </filter>
    <filter
       style="color-interpolation-filters:sRGB;"
       inkscape:label="Blur"
       id="filter6146">
      <feGaussianBlur
         stdDeviation="7.5 7.5"
         result="blur"
         id="feGaussianBlur6148" />
    </filter>
  </defs>
  <sodipodi:namedview
     id="base"
     pagecolor="#ffffff"
     bordercolor="#666666"
     borderopacity="1.0"
     inkscape:pageopacity="0.0"
     inkscape:pageshadow="2"
     inkscape:zoom="0.35355339"
     inkscape:cx="1729.4874"
     inkscape:cy="383.54737"
     inkscape:document-units="px"
     inkscape:current-layer="layer1"
     showgrid="false"
     inkscape:snap-bbox="false"
     inkscape:bbox-nodes="true"
     inkscape:snap-bbox-midpoints="true"
     inkscape:bbox-paths="true"
     inkscape:snap-object-midpoints="true"
     inkscape:snap-bbox-edge-midpoints="true"
     inkscape:object-paths="true"
     inkscape:snap-others="false"
     inkscape:snap-center="true"
     inkscape:window-width="1536"
     inkscape:window-height="793"
     inkscape:window-x="-8"
     inkscape:window-y="-8"
     inkscape:window-maximized="1"
     inkscape:snap-global="false" />
  <metadata
     id="metadata7">
    <rdf:RDF>
      <cc:Work
         rdf:about="">
        <dc:format>image/svg+xml</dc:format>
        <dc:type
           rdf:resource="http://purl.org/dc/dcmitype/StillImage" />
      </cc:Work>
    </rdf:RDF>
  </metadata>
  <g
     inkscape:label="Layer 1"
     inkscape:groupmode="layer"
     id="layer1">
    <g
       id="g5895"
       style="fill:#552200"
       transform="matrix(1.043176,0,0,1.043176,-44.95672,-6.6503562)">
      <circle
         r="268.57144"
         cy="-456.55176"
         cx="-1343.7661"
         id="circle5897"
         style="fill:#552200;fill-opacity:1;fill-rule:evenodd;stroke:none;stroke-width:3;stroke-linecap:butt;stroke-linejoin:miter;stroke-miterlimit:4;stroke-dasharray:none;stroke-opacity:1"
         transform="scale(-1,-1)" />
      <rect
         y="154.02902"
         x="1296.5477"
         height="91.56881"
         width="91.56881"
         id="rect5899"
         style="fill:#552200;fill-opacity:1;stroke-width:3;stroke-miterlimit:4;stroke-dasharray:none" />
      <rect
         transform="matrix(0.8660254,0.5,-0.5,0.8660254,0,0)"
         style="fill:#552200;fill-opacity:1;stroke-width:3;stroke-miterlimit:4;stroke-dasharray:none"
         id="rect5901"
         width="91.56881"
         height="91.56881"
         x="1346.9441"
         y="-587.44031" />
      <rect
         transform="matrix(0.5,0.8660254,-0.8660254,0.5,0,0)"
         y="-1237.9252"
         x="1015.8727"
         height="91.56881"
         width="91.56881"
         id="rect5903"
         style="fill:#552200;fill-opacity:1;stroke-width:3;stroke-miterlimit:4;stroke-dasharray:none" />
      <rect
         style="fill:#552200;fill-opacity:1;stroke-width:3;stroke-miterlimit:4;stroke-dasharray:none"
         id="rect5905"
         width="91.56881"
         height="91.56881"
         x="1554.7201"
         y="409.3334" />
      <rect
         transform="matrix(0.5,-0.8660254,0.8660254,0.5,0,0)"
         y="1602.908"
         x="225.10191"
         height="91.56881"
         width="91.56881"
         id="rect5907"
         style="fill:#552200;fill-opacity:1;stroke-width:3;stroke-miterlimit:4;stroke-dasharray:none" />
      <rect
         transform="matrix(0.8660254,-0.5,0.5,0.8660254,0,0)"
         style="fill:#552200;fill-opacity:1;stroke-width:3;stroke-miterlimit:4;stroke-dasharray:none"
         id="rect5909"
         width="91.56881"
         height="91.56881"
         x="895.28656"
         y="1278.165" />
      <rect
         y="667.50568"
         x="1299.4156"
         height="91.56881"
         width="91.56881"
         id="rect5911"
         style="fill:#552200;fill-opacity:1;stroke-width:3;stroke-miterlimit:4;stroke-dasharray:none" />
      <rect
         transform="matrix(0.8660254,0.5,-0.5,0.8660254,0,0)"
         style="fill:#552200;fill-opacity:1;stroke-width:3;stroke-miterlimit:4;stroke-dasharray:none"
         id="rect5913"
         width="91.56881"
         height="91.56881"
         x="1340.6157"
         y="-65.601021" />
      <rect
         transform="matrix(0.5,0.8660254,-0.8660254,0.5,0,0)"
         y="-724.56311"
         x="1027.0953"
         height="91.56881"
         width="91.56881"
         id="rect5915"
         style="fill:#552200;fill-opacity:1;stroke-width:3;stroke-miterlimit:4;stroke-dasharray:none" />
      <rect
         style="fill:#552200;fill-opacity:1;stroke-width:3;stroke-miterlimit:4;stroke-dasharray:none"
         id="rect5917"
         width="91.56881"
         height="91.56881"
         x="1041.2434"
         y="412.20132" />
      <rect
         transform="matrix(0.5,-0.8660254,0.8660254,0.5,0,0)"
         y="1089.546"
         x="236.32454"
         height="91.56881"
         width="91.56881"
         id="rect5919"
         style="fill:#552200;fill-opacity:1;stroke-width:3;stroke-miterlimit:4;stroke-dasharray:none" />
      <rect
         transform="matrix(0.8660254,-0.5,0.5,0.8660254,0,0)"
         style="fill:#552200;fill-opacity:1;stroke-width:3;stroke-miterlimit:4;stroke-dasharray:none"
         id="rect5921"
         width="91.56881"
         height="91.56881"
         x="884.06396"
         y="764.8031" />
    </g>
    <circle
       style="fill:#ff0000;fill-rule:evenodd;stroke:#000000;stroke-width:3;stroke-linecap:butt;stroke-linejoin:miter;stroke-opacity:1;stroke-miterlimit:4;stroke-dasharray:none"
       id="path3336"
       cx="431.18723"
       cy="456.55176"
       r="268.57144" />
    <g
       id="g4144"
       style="stroke-width:3;stroke-miterlimit:4;stroke-dasharray:none">
      <path
         inkscape:connector-curvature="0"
         id="path4140"
         d="m 431.18723,456.55176 0,-276.07089"
         style="fill:none;fill-rule:evenodd;stroke:#000000;stroke-width:3;stroke-linecap:butt;stroke-linejoin:miter;stroke-opacity:1;stroke-miterlimit:4;stroke-dasharray:none" />
      <path
         style="fill:none;fill-rule:evenodd;stroke:#000000;stroke-width:3;stroke-linecap:butt;stroke-linejoin:miter;stroke-opacity:1;stroke-miterlimit:4;stroke-dasharray:none"
         d="m 431.18723,732.62265 0,-276.07089"
         id="path4142"
         inkscape:connector-curvature="0" />
    </g>
    <g
       id="g4154"
       style="stroke-width:3;stroke-miterlimit:4;stroke-dasharray:none"
       transform="matrix(0,1,-1,0,887.73899,25.36453)">
      <path
         inkscape:connector-curvature="0"
         id="path4156"
         d="m 431.18723,456.55176 0,-276.07089"
         style="fill:none;fill-rule:evenodd;stroke:#000000;stroke-width:3;stroke-linecap:butt;stroke-linejoin:miter;stroke-miterlimit:4;stroke-dasharray:none;stroke-opacity:1" />
      <path
         style="fill:none;fill-rule:evenodd;stroke:#000000;stroke-width:3;stroke-linecap:butt;stroke-linejoin:miter;stroke-miterlimit:4;stroke-dasharray:none;stroke-opacity:1"
         d="m 431.18723,732.62265 0,-276.07089"
         id="path4158"
         inkscape:connector-curvature="0" />
    </g>
    <g
       transform="matrix(0,1,-1,0,887.73899,25.36453)"
       style="stroke-width:3;stroke-miterlimit:4;stroke-dasharray:none"
       id="g4160">
      <path
         style="fill:none;fill-rule:evenodd;stroke:#000000;stroke-width:3;stroke-linecap:butt;stroke-linejoin:miter;stroke-miterlimit:4;stroke-dasharray:none;stroke-opacity:1"
         d="m 431.18723,456.55176 0,-276.07089"
         id="path4162"
         inkscape:connector-curvature="0" />
    </g>
    <g
       style="stroke-width:3;stroke-miterlimit:4;stroke-dasharray:none"
       id="g4166">
      <path
         style="fill:none;fill-rule:evenodd;stroke:#000000;stroke-width:3;stroke-linecap:butt;stroke-linejoin:miter;stroke-opacity:1;stroke-miterlimit:4;stroke-dasharray:none"
         d="m 431.18723,456.55176 0,-276.07089"
         id="path4168"
         inkscape:connector-curvature="0" />
      <path
         inkscape:connector-curvature="0"
         id="path4170"
         d="m 431.18723,732.62265 0,-276.07089"
         style="fill:none;fill-rule:evenodd;stroke:#000000;stroke-width:3;stroke-linecap:butt;stroke-linejoin:miter;stroke-opacity:1;stroke-miterlimit:4;stroke-dasharray:none" />
    </g>
    <g
       transform="matrix(0,1,-1,0,887.73899,25.36453)"
       style="stroke-width:3;stroke-miterlimit:4;stroke-dasharray:none"
       id="g4172">
      <path
         style="fill:none;fill-rule:evenodd;stroke:#000000;stroke-width:3;stroke-linecap:butt;stroke-linejoin:miter;stroke-miterlimit:4;stroke-dasharray:none;stroke-opacity:1"
         d="m 431.18723,456.55176 0,-276.07089"
         id="path4174"
         inkscape:connector-curvature="0" />
      <path
         inkscape:connector-curvature="0"
         id="path4176"
         d="m 431.18723,732.62265 0,-276.07089"
         style="fill:none;fill-rule:evenodd;stroke:#000000;stroke-width:3;stroke-linecap:butt;stroke-linejoin:miter;stroke-miterlimit:4;stroke-dasharray:none;stroke-opacity:1" />
    </g>
    <g
       style="stroke-width:3;stroke-miterlimit:4;stroke-dasharray:none"
       id="g4178"
       transform="matrix(0.8660254,0.5,-0.5,0.8660254,286.04402,-154.42728)">
      <path
         style="fill:none;fill-rule:evenodd;stroke:#000000;stroke-width:3;stroke-linecap:butt;stroke-linejoin:miter;stroke-miterlimit:4;stroke-dasharray:none;stroke-opacity:1"
         d="m 431.18723,456.55176 0,-276.07089"
         id="path4180"
         inkscape:connector-curvature="0" />
      <path
         inkscape:connector-curvature="0"
         id="path4182"
         d="m 431.18723,732.62265 0,-276.07089"
         style="fill:none;fill-rule:evenodd;stroke:#000000;stroke-width:3;stroke-linecap:butt;stroke-linejoin:miter;stroke-miterlimit:4;stroke-dasharray:none;stroke-opacity:1" />
    </g>
    <g
       transform="matrix(-0.5,0.8660254,-0.8660254,-0.5,1042.1663,311.40855)"
       style="stroke-width:3;stroke-miterlimit:4;stroke-dasharray:none"
       id="g4184">
      <path
         style="fill:none;fill-rule:evenodd;stroke:#000000;stroke-width:3;stroke-linecap:butt;stroke-linejoin:miter;stroke-miterlimit:4;stroke-dasharray:none;stroke-opacity:1"
         d="m 431.18723,456.55176 0,-276.07089"
         id="path4186"
         inkscape:connector-curvature="0" />
      <path
         inkscape:connector-curvature="0"
         id="path4188"
         d="m 431.18723,732.62265 0,-276.07089"
         style="fill:none;fill-rule:evenodd;stroke:#000000;stroke-width:3;stroke-linecap:butt;stroke-linejoin:miter;stroke-miterlimit:4;stroke-dasharray:none;stroke-opacity:1" />
    </g>
    <g
       id="g4190"
       style="stroke-width:3;stroke-miterlimit:4;stroke-dasharray:none"
       transform="matrix(-0.5,0.8660254,-0.8660254,-0.5,1042.1663,311.40855)">
      <path
         inkscape:connector-curvature="0"
         id="path4192"
         d="m 431.18723,456.55176 0,-276.07089"
         style="fill:none;fill-rule:evenodd;stroke:#000000;stroke-width:3;stroke-linecap:butt;stroke-linejoin:miter;stroke-miterlimit:4;stroke-dasharray:none;stroke-opacity:1" />
    </g>
    <g
       id="g4194"
       style="stroke-width:3;stroke-miterlimit:4;stroke-dasharray:none"
       transform="matrix(0.8660254,0.5,-0.5,0.8660254,286.04402,-154.42728)">
      <path
         inkscape:connector-curvature="0"
         id="path4196"
         d="m 431.18723,456.55176 0,-276.07089"
         style="fill:none;fill-rule:evenodd;stroke:#000000;stroke-width:3;stroke-linecap:butt;stroke-linejoin:miter;stroke-miterlimit:4;stroke-dasharray:none;stroke-opacity:1" />
      <path
         style="fill:none;fill-rule:evenodd;stroke:#000000;stroke-width:3;stroke-linecap:butt;stroke-linejoin:miter;stroke-miterlimit:4;stroke-dasharray:none;stroke-opacity:1"
         d="m 431.18723,732.62265 0,-276.07089"
         id="path4198"
         inkscape:connector-curvature="0" />
    </g>
    <g
       id="g4200"
       style="stroke-width:3;stroke-miterlimit:4;stroke-dasharray:none"
       transform="matrix(-0.5,0.8660254,-0.8660254,-0.5,1042.1663,311.40855)">
      <path
         inkscape:connector-curvature="0"
         id="path4202"
         d="m 431.18723,456.55176 0,-276.07089"
         style="fill:none;fill-rule:evenodd;stroke:#000000;stroke-width:3;stroke-linecap:butt;stroke-linejoin:miter;stroke-miterlimit:4;stroke-dasharray:none;stroke-opacity:1" />
      <path
         style="fill:none;fill-rule:evenodd;stroke:#000000;stroke-width:3;stroke-linecap:butt;stroke-linejoin:miter;stroke-miterlimit:4;stroke-dasharray:none;stroke-opacity:1"
         d="m 431.18723,732.62265 0,-276.07089"
         id="path4204"
         inkscape:connector-curvature="0" />
    </g>
    <g
       transform="matrix(0.5,0.8660254,-0.8660254,0.5,610.97905,-145.14323)"
       id="g4206"
       style="stroke-width:3;stroke-miterlimit:4;stroke-dasharray:none">
      <path
         inkscape:connector-curvature="0"
         id="path4208"
         d="m 431.18723,456.55176 0,-276.07089"
         style="fill:none;fill-rule:evenodd;stroke:#000000;stroke-width:3;stroke-linecap:butt;stroke-linejoin:miter;stroke-miterlimit:4;stroke-dasharray:none;stroke-opacity:1" />
      <path
         style="fill:none;fill-rule:evenodd;stroke:#000000;stroke-width:3;stroke-linecap:butt;stroke-linejoin:miter;stroke-miterlimit:4;stroke-dasharray:none;stroke-opacity:1"
         d="m 431.18723,732.62265 0,-276.07089"
         id="path4210"
         inkscape:connector-curvature="0" />
    </g>
    <g
       id="g4212"
       style="stroke-width:3;stroke-miterlimit:4;stroke-dasharray:none"
       transform="matrix(-0.8660254,0.5,-0.5,-0.8660254,1032.8822,636.34357)">
      <path
         inkscape:connector-curvature="0"
         id="path4214"
         d="m 431.18723,456.55176 0,-276.07089"
         style="fill:none;fill-rule:evenodd;stroke:#000000;stroke-width:3;stroke-linecap:butt;stroke-linejoin:miter;stroke-miterlimit:4;stroke-dasharray:none;stroke-opacity:1" />
      <path
         style="fill:none;fill-rule:evenodd;stroke:#000000;stroke-width:3;stroke-linecap:butt;stroke-linejoin:miter;stroke-miterlimit:4;stroke-dasharray:none;stroke-opacity:1"
         d="m 431.18723,732.62265 0,-276.07089"
         id="path4216"
         inkscape:connector-curvature="0" />
    </g>
    <g
       transform="matrix(-0.8660254,0.5,-0.5,-0.8660254,1032.8822,636.34357)"
       style="stroke-width:3;stroke-miterlimit:4;stroke-dasharray:none"
       id="g4218">
      <path
         style="fill:none;fill-rule:evenodd;stroke:#000000;stroke-width:3;stroke-linecap:butt;stroke-linejoin:miter;stroke-miterlimit:4;stroke-dasharray:none;stroke-opacity:1"
         d="m 431.18723,456.55176 0,-276.07089"
         id="path4220"
         inkscape:connector-curvature="0" />
    </g>
    <g
       transform="matrix(0.5,0.8660254,-0.8660254,0.5,610.97905,-145.14323)"
       style="stroke-width:3;stroke-miterlimit:4;stroke-dasharray:none"
       id="g4222">
      <path
         style="fill:none;fill-rule:evenodd;stroke:#000000;stroke-width:3;stroke-linecap:butt;stroke-linejoin:miter;stroke-miterlimit:4;stroke-dasharray:none;stroke-opacity:1"
         d="m 431.18723,456.55176 0,-276.07089"
         id="path4224"
         inkscape:connector-curvature="0" />
      <path
         inkscape:connector-curvature="0"
         id="path4226"
         d="m 431.18723,732.62265 0,-276.07089"
         style="fill:none;fill-rule:evenodd;stroke:#000000;stroke-width:3;stroke-linecap:butt;stroke-linejoin:miter;stroke-miterlimit:4;stroke-dasharray:none;stroke-opacity:1" />
    </g>
    <g
       transform="matrix(-0.8660254,0.5,-0.5,-0.8660254,1032.8822,636.34357)"
       style="stroke-width:3;stroke-miterlimit:4;stroke-dasharray:none"
       id="g4228">
      <path
         style="fill:none;fill-rule:evenodd;stroke:#000000;stroke-width:3;stroke-linecap:butt;stroke-linejoin:miter;stroke-miterlimit:4;stroke-dasharray:none;stroke-opacity:1"
         d="m 431.18723,456.55176 0,-276.07089"
         id="path4230"
         inkscape:connector-curvature="0" />
      <path
         inkscape:connector-curvature="0"
         id="path4232"
         d="m 431.18723,732.62265 0,-276.07089"
         style="fill:none;fill-rule:evenodd;stroke:#000000;stroke-width:3;stroke-linecap:butt;stroke-linejoin:miter;stroke-miterlimit:4;stroke-dasharray:none;stroke-opacity:1" />
    </g>
    <rect
       style="fill:#ff0000;fill-opacity:1;stroke-width:3;stroke-miterlimit:4;stroke-dasharray:none"
       id="rect4234"
       width="95.78595"
       height="95.78595"
       x="381.79425"
       y="140.09654" />
    <rect
       y="-145.4711"
       x="554.552"
       height="95.78595"
       width="95.78595"
       id="rect4236"
       style="fill:#ff0000;fill-opacity:1;stroke-width:3;stroke-miterlimit:4;stroke-dasharray:none"
       transform="matrix(0.8660254,0.5,-0.5,0.8660254,0,0)" />
    <rect
       style="fill:#ff0000;fill-opacity:1;stroke-width:3;stroke-miterlimit:4;stroke-dasharray:none"
       id="rect4238"
       width="95.78595"
       height="95.78595"
       x="557.21631"
       y="-461.53848"
       transform="matrix(0.5,0.8660254,-0.8660254,0.5,0,0)" />
    <rect
       y="407.15878"
       x="651.85651"
       height="95.78595"
       width="95.78595"
       id="rect4240"
       style="fill:#ff0000;fill-opacity:1;stroke-width:3;stroke-miterlimit:4;stroke-dasharray:none" />
    <rect
       style="fill:#ff0000;fill-opacity:1;stroke-width:3;stroke-miterlimit:4;stroke-dasharray:none"
       id="rect4242"
       width="95.78595"
       height="95.78595"
       x="-233.55453"
       y="822.30426"
       transform="matrix(0.5,-0.8660254,0.8660254,0.5,0,0)" />
    <rect
       y="831.58838"
       x="103.11993"
       height="95.78595"
       width="95.78595"
       id="rect4244"
       style="fill:#ff0000;fill-opacity:1;stroke-width:3;stroke-miterlimit:4;stroke-dasharray:none"
       transform="matrix(0.8660254,-0.5,0.5,0.8660254,0,0)" />
    <rect
       style="fill:#ff0000;fill-opacity:1;stroke-width:3;stroke-miterlimit:4;stroke-dasharray:none"
       id="rect4246"
       width="95.78595"
       height="95.78595"
       x="384.79425"
       y="677.22101" />
    <rect
       y="400.40112"
       x="547.93225"
       height="95.78595"
       width="95.78595"
       id="rect4248"
       style="fill:#ff0000;fill-opacity:1;stroke-width:3;stroke-miterlimit:4;stroke-dasharray:none"
       transform="matrix(0.8660254,0.5,-0.5,0.8660254,0,0)" />
    <rect
       style="fill:#ff0000;fill-opacity:1;stroke-width:3;stroke-miterlimit:4;stroke-dasharray:none"
       id="rect4250"
       width="95.78595"
       height="95.78595"
       x="568.95575"
       y="75.466103"
       transform="matrix(0.5,0.8660254,-0.8660254,0.5,0,0)" />
    <rect
       y="410.15878"
       x="114.73201"
       height="95.78595"
       width="95.78595"
       id="rect4252"
       style="fill:#ff0000;fill-opacity:1;stroke-width:3;stroke-miterlimit:4;stroke-dasharray:none" />
    <rect
       style="fill:#ff0000;fill-opacity:1;stroke-width:3;stroke-miterlimit:4;stroke-dasharray:none"
       id="rect4254"
       width="95.78595"
       height="95.78595"
       x="-221.81505"
       y="285.29971"
       transform="matrix(0.5,-0.8660254,0.8660254,0.5,0,0)" />
    <rect
       y="294.58377"
       x="91.380508"
       height="95.78595"
       width="95.78595"
       id="rect4256"
       style="fill:#ff0000;fill-opacity:1;stroke-width:3;stroke-miterlimit:4;stroke-dasharray:none"
       transform="matrix(0.8660254,-0.5,0.5,0.8660254,0,0)" />
    <g
       id="g5880">
      <circle
         transform="scale(-1,-1)"
         style="fill:#f0a129;fill-rule:evenodd;stroke:none;stroke-width:3;stroke-linecap:butt;stroke-linejoin:miter;stroke-miterlimit:4;stroke-dasharray:none;stroke-opacity:1;fill-opacity:1"
         id="circle4258"
         cx="-1343.7661"
         cy="-456.55176"
         r="268.57144" />
      <rect
         style="fill:#f0a129;fill-opacity:1;stroke-width:3;stroke-miterlimit:4;stroke-dasharray:none"
         id="rect4344"
         width="91.56881"
         height="91.56881"
         x="1296.5477"
         y="154.02902" />
      <rect
         y="-587.44031"
         x="1346.9441"
         height="91.56881"
         width="91.56881"
         id="rect4346"
         style="fill:#f0a129;fill-opacity:1;stroke-width:3;stroke-miterlimit:4;stroke-dasharray:none"
         transform="matrix(0.8660254,0.5,-0.5,0.8660254,0,0)" />
      <rect
         style="fill:#f0a129;fill-opacity:1;stroke-width:3;stroke-miterlimit:4;stroke-dasharray:none"
         id="rect4348"
         width="91.56881"
         height="91.56881"
         x="1015.8727"
         y="-1237.9252"
         transform="matrix(0.5,0.8660254,-0.8660254,0.5,0,0)" />
      <rect
         y="409.3334"
         x="1554.7201"
         height="91.56881"
         width="91.56881"
         id="rect4350"
         style="fill:#f0a129;fill-opacity:1;stroke-width:3;stroke-miterlimit:4;stroke-dasharray:none" />
      <rect
         style="fill:#f0a129;fill-opacity:1;stroke-width:3;stroke-miterlimit:4;stroke-dasharray:none"
         id="rect4352"
         width="91.56881"
         height="91.56881"
         x="225.10191"
         y="1602.908"
         transform="matrix(0.5,-0.8660254,0.8660254,0.5,0,0)" />
      <rect
         y="1278.165"
         x="895.28656"
         height="91.56881"
         width="91.56881"
         id="rect4354"
         style="fill:#f0a129;fill-opacity:1;stroke-width:3;stroke-miterlimit:4;stroke-dasharray:none"
         transform="matrix(0.8660254,-0.5,0.5,0.8660254,0,0)" />
      <rect
         style="fill:#f0a129;fill-opacity:1;stroke-width:3;stroke-miterlimit:4;stroke-dasharray:none"
         id="rect4356"
         width="91.56881"
         height="91.56881"
         x="1299.4156"
         y="667.50568" />
      <rect
         y="-65.601021"
         x="1340.6157"
         height="91.56881"
         width="91.56881"
         id="rect4358"
         style="fill:#f0a129;fill-opacity:1;stroke-width:3;stroke-miterlimit:4;stroke-dasharray:none"
         transform="matrix(0.8660254,0.5,-0.5,0.8660254,0,0)" />
      <rect
         style="fill:#f0a129;fill-opacity:1;stroke-width:3;stroke-miterlimit:4;stroke-dasharray:none"
         id="rect4360"
         width="91.56881"
         height="91.56881"
         x="1027.0953"
         y="-724.56311"
         transform="matrix(0.5,0.8660254,-0.8660254,0.5,0,0)" />
      <rect
         y="412.20132"
         x="1041.2434"
         height="91.56881"
         width="91.56881"
         id="rect4362"
         style="fill:#f0a129;fill-opacity:1;stroke-width:3;stroke-miterlimit:4;stroke-dasharray:none" />
      <rect
         style="fill:#f0a129;fill-opacity:1;stroke-width:3;stroke-miterlimit:4;stroke-dasharray:none"
         id="rect4364"
         width="91.56881"
         height="91.56881"
         x="236.32454"
         y="1089.546"
         transform="matrix(0.5,-0.8660254,0.8660254,0.5,0,0)" />
      <rect
         y="764.8031"
         x="884.06396"
         height="91.56881"
         width="91.56881"
         id="rect4366"
         style="fill:#f0a129;fill-opacity:1;stroke-width:3;stroke-miterlimit:4;stroke-dasharray:none"
         transform="matrix(0.8660254,-0.5,0.5,0.8660254,0,0)" />
    </g>
    <circle
       style="fill:#ffffff;fill-opacity:1;stroke:none;stroke-width:3;stroke-miterlimit:4;stroke-dasharray:none"
       id="path4368"
       cx="-1343.7661"
       cy="-456.55176"
       r="218.69008"
       transform="scale(-1,-1)" />
    <text
       xml:space="preserve"
       style="font-style:normal;font-weight:normal;font-size:398.1960144px;line-height:125%;font-family:sans-serif;letter-spacing:0px;word-spacing:0px;fill:#ab7a2e;fill-opacity:1;stroke:none;stroke-width:1px;stroke-linecap:butt;stroke-linejoin:miter;stroke-opacity:1;"
       x="1185.1089"
       y="564.20221"
       id="text4378"
       sodipodi:linespacing="125%"><tspan
         sodipodi:role="line"
         id="tspan4380"
         x="1185.1089"
         y="564.20221"
         style="font-style:normal;font-variant:normal;font-weight:normal;font-stretch:normal;font-size:398.1960144px;line-height:125%;font-family:Harrington;-inkscape-font-specification:'Harrington, Normal';text-align:start;writing-mode:lr-tb;text-anchor:start;fill:#ab7a2e;fill-opacity:1;">A</tspan></text>
    <g
       transform="matrix(1.1507345,0,0,1.1507345,559.24402,-55.756399)"
       style="fill:#552200;stroke:#552200;stroke-width:4.28017759;stroke-miterlimit:4;stroke-dasharray:none;stroke-opacity:1"
       id="g5923"
       inkscape:export-xdpi="90"
       inkscape:export-ydpi="90">
      <circle
         transform="scale(-1,-1)"
         style="fill:#552200;fill-opacity:1;fill-rule:evenodd;stroke:#552200;stroke-width:4.28017759;stroke-linecap:butt;stroke-linejoin:miter;stroke-miterlimit:4;stroke-dasharray:none;stroke-opacity:1"
         id="circle5925"
         cx="-1343.7661"
         cy="-456.55176"
         r="268.57144" />
      <rect
         style="fill:#552200;fill-opacity:1;stroke:#552200;stroke-width:4.28017759;stroke-miterlimit:4;stroke-dasharray:none;stroke-opacity:1"
         id="rect5927"
         width="91.56881"
         height="91.56881"
         x="1296.5477"
         y="154.02902" />
      <rect
         y="-587.44031"
         x="1346.9441"
         height="91.56881"
         width="91.56881"
         id="rect5929"
         style="fill:#552200;fill-opacity:1;stroke:#552200;stroke-width:4.28017759;stroke-miterlimit:4;stroke-dasharray:none;stroke-opacity:1"
         transform="matrix(0.8660254,0.5,-0.5,0.8660254,0,0)" />
      <rect
         style="fill:#552200;fill-opacity:1;stroke:#552200;stroke-width:4.28017759;stroke-miterlimit:4;stroke-dasharray:none;stroke-opacity:1"
         id="rect5931"
         width="91.56881"
         height="91.56881"
         x="1015.8727"
         y="-1237.9252"
         transform="matrix(0.5,0.8660254,-0.8660254,0.5,0,0)" />
      <rect
         y="409.3334"
         x="1554.7201"
         height="91.56881"
         width="91.56881"
         id="rect5933"
         style="fill:#552200;fill-opacity:1;stroke:#552200;stroke-width:4.28017759;stroke-miterlimit:4;stroke-dasharray:none;stroke-opacity:1" />
      <rect
         style="fill:#552200;fill-opacity:1;stroke:#552200;stroke-width:4.28017759;stroke-miterlimit:4;stroke-dasharray:none;stroke-opacity:1"
         id="rect5935"
         width="91.56881"
         height="91.56881"
         x="225.10191"
         y="1602.908"
         transform="matrix(0.5,-0.8660254,0.8660254,0.5,0,0)" />
      <rect
         y="1278.165"
         x="895.28656"
         height="91.56881"
         width="91.56881"
         id="rect5937"
         style="fill:#552200;fill-opacity:1;stroke:#552200;stroke-width:4.28017759;stroke-miterlimit:4;stroke-dasharray:none;stroke-opacity:1"
         transform="matrix(0.8660254,-0.5,0.5,0.8660254,0,0)" />
      <rect
         style="fill:#552200;fill-opacity:1;stroke:#552200;stroke-width:4.28017759;stroke-miterlimit:4;stroke-dasharray:none;stroke-opacity:1"
         id="rect5939"
         width="91.56881"
         height="91.56881"
         x="1299.4156"
         y="667.50568" />
      <rect
         y="-65.601021"
         x="1340.6157"
         height="91.56881"
         width="91.56881"
         id="rect5941"
         style="fill:#552200;fill-opacity:1;stroke:#552200;stroke-width:4.28017759;stroke-miterlimit:4;stroke-dasharray:none;stroke-opacity:1"
         transform="matrix(0.8660254,0.5,-0.5,0.8660254,0,0)" />
      <rect
         style="fill:#552200;fill-opacity:1;stroke:#552200;stroke-width:4.28017759;stroke-miterlimit:4;stroke-dasharray:none;stroke-opacity:1"
         id="rect5943"
         width="91.56881"
         height="91.56881"
         x="1027.0953"
         y="-724.56311"
         transform="matrix(0.5,0.8660254,-0.8660254,0.5,0,0)" />
      <rect
         y="412.20132"
         x="1041.2434"
         height="91.56881"
         width="91.56881"
         id="rect5945"
         style="fill:#552200;fill-opacity:1;stroke:#552200;stroke-width:4.28017759;stroke-miterlimit:4;stroke-dasharray:none;stroke-opacity:1" />
      <rect
         style="fill:#552200;fill-opacity:1;stroke:#552200;stroke-width:4.28017759;stroke-miterlimit:4;stroke-dasharray:none;stroke-opacity:1"
         id="rect5947"
         width="91.56881"
         height="91.56881"
         x="236.32454"
         y="1089.546"
         transform="matrix(0.5,-0.8660254,0.8660254,0.5,0,0)" />
      <rect
         y="764.8031"
         x="884.06396"
         height="91.56881"
         width="91.56881"
         id="rect5949"
         style="fill:#552200;fill-opacity:1;stroke:#552200;stroke-width:4.28017759;stroke-miterlimit:4;stroke-dasharray:none;stroke-opacity:1"
         transform="matrix(0.8660254,-0.5,0.5,0.8660254,0,0)" />
    </g>
    <g
       transform="matrix(0.98182023,0,0,0.98182023,786.22538,21.361732)"
       id="g6114"
       style="fill:#000000;filter:url(#filter6146)"
       inkscape:export-xdpi="90"
       inkscape:export-ydpi="90">
      <circle
         transform="scale(-1,-1)"
         style="fill:#000000;fill-opacity:1;fill-rule:evenodd;stroke:none;stroke-width:3;stroke-linecap:butt;stroke-linejoin:miter;stroke-miterlimit:4;stroke-dasharray:none;stroke-opacity:1"
         id="circle6116"
         cx="-1343.7661"
         cy="-456.55176"
         r="268.57144" />
      <rect
         style="fill:#000000;fill-opacity:1;stroke-width:3;stroke-miterlimit:4;stroke-dasharray:none"
         id="rect6118"
         width="91.56881"
         height="91.56881"
         x="1296.5477"
         y="154.02902" />
      <rect
         y="-587.44031"
         x="1346.9441"
         height="91.56881"
         width="91.56881"
         id="rect6120"
         style="fill:#000000;fill-opacity:1;stroke-width:3;stroke-miterlimit:4;stroke-dasharray:none"
         transform="matrix(0.8660254,0.5,-0.5,0.8660254,0,0)" />
      <rect
         style="fill:#000000;fill-opacity:1;stroke-width:3;stroke-miterlimit:4;stroke-dasharray:none"
         id="rect6122"
         width="91.56881"
         height="91.56881"
         x="1015.8727"
         y="-1237.9252"
         transform="matrix(0.5,0.8660254,-0.8660254,0.5,0,0)" />
      <rect
         y="409.3334"
         x="1554.7201"
         height="91.56881"
         width="91.56881"
         id="rect6124"
         style="fill:#000000;fill-opacity:1;stroke-width:3;stroke-miterlimit:4;stroke-dasharray:none" />
      <rect
         style="fill:#000000;fill-opacity:1;stroke-width:3;stroke-miterlimit:4;stroke-dasharray:none"
         id="rect6126"
         width="91.56881"
         height="91.56881"
         x="225.10191"
         y="1602.908"
         transform="matrix(0.5,-0.8660254,0.8660254,0.5,0,0)" />
      <rect
         y="1278.165"
         x="895.28656"
         height="91.56881"
         width="91.56881"
         id="rect6128"
         style="fill:#000000;fill-opacity:1;stroke-width:3;stroke-miterlimit:4;stroke-dasharray:none"
         transform="matrix(0.8660254,-0.5,0.5,0.8660254,0,0)" />
      <rect
         style="fill:#000000;fill-opacity:1;stroke-width:3;stroke-miterlimit:4;stroke-dasharray:none"
         id="rect6130"
         width="91.56881"
         height="91.56881"
         x="1299.4156"
         y="667.50568" />
      <rect
         y="-65.601021"
         x="1340.6157"
         height="91.56881"
         width="91.56881"
         id="rect6132"
         style="fill:#000000;fill-opacity:1;stroke-width:3;stroke-miterlimit:4;stroke-dasharray:none"
         transform="matrix(0.8660254,0.5,-0.5,0.8660254,0,0)" />
      <rect
         style="fill:#000000;fill-opacity:1;stroke-width:3;stroke-miterlimit:4;stroke-dasharray:none"
         id="rect6134"
         width="91.56881"
         height="91.56881"
         x="1027.0953"
         y="-724.56311"
         transform="matrix(0.5,0.8660254,-0.8660254,0.5,0,0)" />
      <rect
         y="412.20132"
         x="1041.2434"
         height="91.56881"
         width="91.56881"
         id="rect6136"
         style="fill:#000000;fill-opacity:1;stroke-width:3;stroke-miterlimit:4;stroke-dasharray:none" />
      <rect
         style="fill:#000000;fill-opacity:1;stroke-width:3;stroke-miterlimit:4;stroke-dasharray:none"
         id="rect6138"
         width="91.56881"
         height="91.56881"
         x="236.32454"
         y="1089.546"
         transform="matrix(0.5,-0.8660254,0.8660254,0.5,0,0)" />
      <rect
         y="764.8031"
         x="884.06396"
         height="91.56881"
         width="91.56881"
         id="rect6140"
         style="fill:#000000;fill-opacity:1;stroke-width:3;stroke-miterlimit:4;stroke-dasharray:none"
         transform="matrix(0.8660254,-0.5,0.5,0.8660254,0,0)" />
    </g>
    <g
       id="g5951"
       transform="matrix(0.98182023,0,0,0.98182023,786.22538,21.361732)"
       inkscape:export-xdpi="90"
       inkscape:export-ydpi="90">
      <circle
         r="268.57144"
         cy="-456.55176"
         cx="-1343.7661"
         id="circle5953"
         style="fill:#f0a129;fill-opacity:1;fill-rule:evenodd;stroke:none;stroke-width:3;stroke-linecap:butt;stroke-linejoin:miter;stroke-miterlimit:4;stroke-dasharray:none;stroke-opacity:1"
         transform="scale(-1,-1)" />
      <rect
         y="154.02902"
         x="1296.5477"
         height="91.56881"
         width="91.56881"
         id="rect5955"
         style="fill:#f0a129;fill-opacity:1;stroke-width:3;stroke-miterlimit:4;stroke-dasharray:none" />
      <rect
         transform="matrix(0.8660254,0.5,-0.5,0.8660254,0,0)"
         style="fill:#f0a129;fill-opacity:1;stroke-width:3;stroke-miterlimit:4;stroke-dasharray:none"
         id="rect5957"
         width="91.56881"
         height="91.56881"
         x="1346.9441"
         y="-587.44031" />
      <rect
         transform="matrix(0.5,0.8660254,-0.8660254,0.5,0,0)"
         y="-1237.9252"
         x="1015.8727"
         height="91.56881"
         width="91.56881"
         id="rect5959"
         style="fill:#f0a129;fill-opacity:1;stroke-width:3;stroke-miterlimit:4;stroke-dasharray:none" />
      <rect
         style="fill:#f0a129;fill-opacity:1;stroke-width:3;stroke-miterlimit:4;stroke-dasharray:none"
         id="rect5961"
         width="91.56881"
         height="91.56881"
         x="1554.7201"
         y="409.3334" />
      <rect
         transform="matrix(0.5,-0.8660254,0.8660254,0.5,0,0)"
         y="1602.908"
         x="225.10191"
         height="91.56881"
         width="91.56881"
         id="rect5963"
         style="fill:#f0a129;fill-opacity:1;stroke-width:3;stroke-miterlimit:4;stroke-dasharray:none" />
      <rect
         transform="matrix(0.8660254,-0.5,0.5,0.8660254,0,0)"
         style="fill:#f0a129;fill-opacity:1;stroke-width:3;stroke-miterlimit:4;stroke-dasharray:none"
         id="rect5965"
         width="91.56881"
         height="91.56881"
         x="895.28656"
         y="1278.165" />
      <rect
         y="667.50568"
         x="1299.4156"
         height="91.56881"
         width="91.56881"
         id="rect5967"
         style="fill:#f0a129;fill-opacity:1;stroke-width:3;stroke-miterlimit:4;stroke-dasharray:none" />
      <rect
         transform="matrix(0.8660254,0.5,-0.5,0.8660254,0,0)"
         style="fill:#f0a129;fill-opacity:1;stroke-width:3;stroke-miterlimit:4;stroke-dasharray:none"
         id="rect5969"
         width="91.56881"
         height="91.56881"
         x="1340.6157"
         y="-65.601021" />
      <rect
         transform="matrix(0.5,0.8660254,-0.8660254,0.5,0,0)"
         y="-724.56311"
         x="1027.0953"
         height="91.56881"
         width="91.56881"
         id="rect5971"
         style="fill:#f0a129;fill-opacity:1;stroke-width:3;stroke-miterlimit:4;stroke-dasharray:none" />
      <rect
         style="fill:#f0a129;fill-opacity:1;stroke-width:3;stroke-miterlimit:4;stroke-dasharray:none"
         id="rect5973"
         width="91.56881"
         height="91.56881"
         x="1041.2434"
         y="412.20132" />
      <rect
         transform="matrix(0.5,-0.8660254,0.8660254,0.5,0,0)"
         y="1089.546"
         x="236.32454"
         height="91.56881"
         width="91.56881"
         id="rect5975"
         style="fill:#f0a129;fill-opacity:1;stroke-width:3;stroke-miterlimit:4;stroke-dasharray:none" />
      <rect
         transform="matrix(0.8660254,-0.5,0.5,0.8660254,0,0)"
         style="fill:#f0a129;fill-opacity:1;stroke-width:3;stroke-miterlimit:4;stroke-dasharray:none"
         id="rect5977"
         width="91.56881"
         height="91.56881"
         x="884.06396"
         y="764.8031" />
    </g>
    <circle
       transform="scale(-1,-1)"
       r="192.71907"
       cy="-469.61346"
       cx="-2105.5623"
       id="circle5979"
       style="fill:#ffffff;fill-opacity:1;stroke:none;stroke-width:3;stroke-miterlimit:4;stroke-dasharray:none"
       inkscape:export-xdpi="90"
       inkscape:export-ydpi="90" />
    <g
       transform="scale(0.9825757,1.0177333)"
       style="font-style:normal;font-weight:normal;font-size:342.02444458px;line-height:125%;font-family:sans-serif;letter-spacing:0px;word-spacing:0px;fill:#552200;fill-opacity:1;stroke:#552200;stroke-width:5.04263687;stroke-linecap:butt;stroke-linejoin:miter;stroke-miterlimit:4;stroke-dasharray:none;stroke-opacity:1"
       id="text5981"
       inkscape:export-xdpi="90"
       inkscape:export-ydpi="90">
      <path
         d="m 2237.2844,569.64219 q 0.334,0.33401 0.501,1.00203 0.167,0.50101 0.167,0.83502 0,1.83704 -3.006,1.83704 -1.6701,0.16701 -10.0203,-0.334 -8.1832,-0.66802 -11.3563,-0.66802 -5.3441,0 -16.0324,0.83502 -4.0081,0.33401 -5.6781,0.167 -2.8391,0 -2.8391,-2.00405 0,-0.83502 0.501,-1.33603 0.501,-0.66801 7.1812,-5.84514 5.1771,-4.0081 5.1771,-7.18118 0.334,-1.83705 0.6681,-5.17713 0.501,-3.50708 0.501,-8.0162 0,-18.37045 -5.6782,-36.07289 -8.1832,-25.38462 -27.5557,-47.26216 -11.6902,-13.02632 -26.7206,-22.21155 -14.8634,-9.35223 -33.4008,-15.53139 -9.5193,16.86742 -16.1994,36.90792 -8.8513,26.72066 -8.8513,49.93423 0,25.38463 1.1691,36.4069 2.004,19.20547 8.8512,34.40285 4.3421,9.18522 13.0263,16.03239 4.6761,3.67409 12.0243,7.34818 2.0041,1.00203 2.0041,2.33806 0,1.16903 -1.6701,1.67004 -4.8431,1.50304 -9.3522,3.17308 -4.3421,1.67004 -10.1873,4.50911 -5.6781,2.83907 -9.8532,5.84515 -2.8391,2.00405 -5.3441,4.1751 -1.3361,1.00203 -2.1711,1.00203 -1.503,0 -1.503,-2.67207 0,-5.17713 -0.501,-11.85729 -0.5011,-6.68017 -2.5051,-21.20953 -3.0061,-17.20142 -5.5111,-34.06884 -2.5051,-16.86741 -2.5051,-31.73078 0,-30.56176 7.8492,-60.28849 6.8472,-26.05264 17.8694,-45.25812 -3.6741,-0.66801 -7.8492,-1.16903 -4.0081,-0.50101 -9.3522,-0.50101 -9.5192,0 -19.8735,2.33806 -10.1872,2.17105 -17.8694,7.34818 -10.1873,6.84717 -10.1873,16.0324 0,9.51923 7.6822,11.02227 0.668,0.167 2.0041,0.167 3.507,0 6.0121,-1.67004 2.6721,-1.67004 3.0061,-5.01012 0.501,-3.34008 1.837,-3.34008 1.0021,0 1.5031,1.83704 0.668,1.83705 0.668,4.67612 0,1.50303 -0.334,3.34008 -0.334,1.67004 -0.668,3.34008 -2.1711,6.17915 -7.3482,10.35426 -5.1772,4.0081 -12.8593,4.0081 -1.0021,0.167 -1.8371,0.167 -8.8512,0 -15.0304,-6.51316 -6.0121,-6.68017 -6.0121,-17.03442 0,-17.20143 18.7045,-28.55771 12.3583,-7.51518 27.7226,-10.52126 5.3442,-1.00202 11.8573,-1.50303 6.5132,-0.50102 13.3604,-0.50102 13.5273,0 21.2095,1.67005 24.2156,-32.0648 53.6083,-49.60023 33.9018,-20.2075 73.6488,-20.2075 5.5112,0 5.5112,1.50304 0,0.66802 -1.1691,1.83704 -5.5111,6.17916 -7.0141,11.18928 -2.0041,7.01417 -2.0041,25.55163 l 0,177.35838 q 0,3.17308 5.0101,7.01417 6.6802,5.17713 7.0142,5.67814 z m -35.4049,-84.17007 0,-131.93326 q -24.0486,4.50911 -47.7631,21.04252 -13.0264,9.01822 -21.0426,17.20142 -8.0162,8.1832 -17.0344,21.54353 14.3624,4.84312 26.2197,11.35628 10.5212,5.84515 21.5435,14.69637 12.1913,9.68624 21.0425,20.5415 8.1832,10.02025 17.0344,25.55164 z"
         style="font-style:normal;font-variant:normal;font-weight:normal;font-stretch:normal;font-size:342.02444458px;line-height:125%;font-family:Harrington;-inkscape-font-specification:'Harrington, Normal';text-align:start;writing-mode:lr-tb;text-anchor:start;fill:#552200;fill-opacity:1;stroke:#552200;stroke-width:5.04263687;stroke-miterlimit:4;stroke-dasharray:none;stroke-opacity:1"
         id="path6016" />
    </g>
    <ellipse
       style="fill:#ffffff;fill-opacity:1;stroke:none;stroke-width:5;stroke-miterlimit:4;stroke-dasharray:none;stroke-opacity:1"
       id="path6002"
       cx="2210.75"
       cy="373.11221"
       rx="30.25"
       ry="40.75"
       inkscape:export-xdpi="90"
       inkscape:export-ydpi="90" />
    <path
       style="fill:#552200;fill-opacity:1;fill-rule:evenodd;stroke:none;stroke-width:1px;stroke-linecap:butt;stroke-linejoin:miter;stroke-opacity:1"
       d="m 2192.3192,586.09313 c 6.1804,0.26486 10.6857,1.28162 12.2771,-1.33482 0.5081,-0.74958 1.5509,-9.90674 -0.2624,-11.28089 -1.0926,-1.42661 -3.2134,2.73121 -4.8946,2.25191 -8.0408,-1.04994 -7.6879,2.68886 -9.8532,6.56164 1.0979,1.77483 1.7301,2.88355 2.7331,3.80216 z"
       id="path6004"
       inkscape:connector-curvature="0"
       sodipodi:nodetypes="cccccc"
       inkscape:export-xdpi="90"
       inkscape:export-ydpi="90" />
    <text
       sodipodi:linespacing="125%"
       id="text6096"
       y="576.64374"
       x="1959.1296"
       style="font-style:normal;font-weight:normal;font-size:358.61785889px;line-height:125%;font-family:sans-serif;letter-spacing:0px;word-spacing:0px;fill:#000000;fill-opacity:1;stroke:none;stroke-width:1px;stroke-linecap:butt;stroke-linejoin:miter;stroke-opacity:1;filter:url(#filter6110)"
       xml:space="preserve"
       inkscape:export-xdpi="90"
       inkscape:export-ydpi="90"><tspan
         style="font-style:normal;font-variant:normal;font-weight:normal;font-stretch:normal;font-size:358.61785889px;line-height:125%;font-family:Harrington;-inkscape-font-specification:'Harrington, Normal';text-align:start;writing-mode:lr-tb;text-anchor:start;fill:#000000;fill-opacity:1;"
         y="576.64374"
         x="1959.1296"
         id="tspan6098"
         sodipodi:role="line">A</tspan></text>
    <text
       xml:space="preserve"
       style="font-style:normal;font-weight:normal;font-size:358.61785889px;line-height:125%;font-family:sans-serif;letter-spacing:0px;word-spacing:0px;fill:#f0a129;fill-opacity:1;stroke:none;stroke-width:1px;stroke-linecap:butt;stroke-linejoin:miter;stroke-opacity:1"
       x="1959.1296"
       y="576.64374"
       id="text5988"
       sodipodi:linespacing="125%"
       inkscape:export-xdpi="90"
       inkscape:export-ydpi="90"><tspan
         sodipodi:role="line"
         id="tspan5990"
         x="1959.1296"
         y="576.64374"
         style="font-style:normal;font-variant:normal;font-weight:normal;font-stretch:normal;font-size:358.61785889px;line-height:125%;font-family:Harrington;-inkscape-font-specification:'Harrington, Normal';text-align:start;writing-mode:lr-tb;text-anchor:start;fill:#f0a129;fill-opacity:1">A</tspan></text>
    <g
       id="g6162"
       transform="translate(-1088.6459,463.86205)">
      <g
         transform="scale(0.9825757,1.0177333)"
         style="font-style:normal;font-weight:normal;font-size:342.02444458px;line-height:125%;font-family:sans-serif;letter-spacing:0px;word-spacing:0px;fill:#552200;fill-opacity:1;stroke:#552200;stroke-width:5.04263687;stroke-linecap:butt;stroke-linejoin:miter;stroke-miterlimit:4;stroke-dasharray:none;stroke-opacity:1"
         id="g6150">
        <path
           d="m 2237.2844,569.64219 q 0.334,0.33401 0.501,1.00203 0.167,0.50101 0.167,0.83502 0,1.83704 -3.006,1.83704 -1.6701,0.16701 -10.0203,-0.334 -8.1832,-0.66802 -11.3563,-0.66802 -5.3441,0 -16.0324,0.83502 -4.0081,0.33401 -5.6781,0.167 -2.8391,0 -2.8391,-2.00405 0,-0.83502 0.501,-1.33603 0.501,-0.66801 7.1812,-5.84514 5.1771,-4.0081 5.1771,-7.18118 0.334,-1.83705 0.6681,-5.17713 0.501,-3.50708 0.501,-8.0162 0,-18.37045 -5.6782,-36.07289 -8.1832,-25.38462 -27.5557,-47.26216 -11.6902,-13.02632 -26.7206,-22.21155 -14.8634,-9.35223 -33.4008,-15.53139 -9.5193,16.86742 -16.1994,36.90792 -8.8513,26.72066 -8.8513,49.93423 0,25.38463 1.1691,36.4069 2.004,19.20547 8.8512,34.40285 4.3421,9.18522 13.0263,16.03239 4.6761,3.67409 12.0243,7.34818 2.0041,1.00203 2.0041,2.33806 0,1.16903 -1.6701,1.67004 -4.8431,1.50304 -9.3522,3.17308 -4.3421,1.67004 -10.1873,4.50911 -5.6781,2.83907 -9.8532,5.84515 -2.8391,2.00405 -5.3441,4.1751 -1.3361,1.00203 -2.1711,1.00203 -1.503,0 -1.503,-2.67207 0,-5.17713 -0.501,-11.85729 -0.5011,-6.68017 -2.5051,-21.20953 -3.0061,-17.20142 -5.5111,-34.06884 -2.5051,-16.86741 -2.5051,-31.73078 0,-30.56176 7.8492,-60.28849 6.8472,-26.05264 17.8694,-45.25812 -3.6741,-0.66801 -7.8492,-1.16903 -4.0081,-0.50101 -9.3522,-0.50101 -9.5192,0 -19.8735,2.33806 -10.1872,2.17105 -17.8694,7.34818 -10.1873,6.84717 -10.1873,16.0324 0,9.51923 7.6822,11.02227 0.668,0.167 2.0041,0.167 3.507,0 6.0121,-1.67004 2.6721,-1.67004 3.0061,-5.01012 0.501,-3.34008 1.837,-3.34008 1.0021,0 1.5031,1.83704 0.668,1.83705 0.668,4.67612 0,1.50303 -0.334,3.34008 -0.334,1.67004 -0.668,3.34008 -2.1711,6.17915 -7.3482,10.35426 -5.1772,4.0081 -12.8593,4.0081 -1.0021,0.167 -1.8371,0.167 -8.8512,0 -15.0304,-6.51316 -6.0121,-6.68017 -6.0121,-17.03442 0,-17.20143 18.7045,-28.55771 12.3583,-7.51518 27.7226,-10.52126 5.3442,-1.00202 11.8573,-1.50303 6.5132,-0.50102 13.3604,-0.50102 13.5273,0 21.2095,1.67005 24.2156,-32.0648 53.6083,-49.60023 33.9018,-20.2075 73.6488,-20.2075 5.5112,0 5.5112,1.50304 0,0.66802 -1.1691,1.83704 -5.5111,6.17916 -7.0141,11.18928 -2.0041,7.01417 -2.0041,25.55163 l 0,177.35838 q 0,3.17308 5.0101,7.01417 6.6802,5.17713 7.0142,5.67814 z m -35.4049,-84.17007 0,-131.93326 q -24.0486,4.50911 -47.7631,21.04252 -13.0264,9.01822 -21.0426,17.20142 -8.0162,8.1832 -17.0344,21.54353 14.3624,4.84312 26.2197,11.35628 10.5212,5.84515 21.5435,14.69637 12.1913,9.68624 21.0425,20.5415 8.1832,10.02025 17.0344,25.55164 z"
           style="font-style:normal;font-variant:normal;font-weight:normal;font-stretch:normal;font-size:342.02444458px;line-height:125%;font-family:Harrington;-inkscape-font-specification:'Harrington, Normal';text-align:start;writing-mode:lr-tb;text-anchor:start;fill:#552200;fill-opacity:1;stroke:#552200;stroke-width:5.04263687;stroke-miterlimit:4;stroke-dasharray:none;stroke-opacity:1"
           id="path6152"
           inkscape:connector-curvature="0" />
      </g>
      <text
         sodipodi:linespacing="125%"
         id="text6154"
         y="576.64374"
         x="1959.1296"
         style="font-style:normal;font-weight:normal;font-size:358.61785889px;line-height:125%;font-family:sans-serif;letter-spacing:0px;word-spacing:0px;fill:#000000;fill-opacity:1;stroke:none;stroke-width:1px;stroke-linecap:butt;stroke-linejoin:miter;stroke-opacity:1;filter:url(#filter6110)"
         xml:space="preserve"><tspan
           style="font-style:normal;font-variant:normal;font-weight:normal;font-stretch:normal;font-size:358.61785889px;line-height:125%;font-family:Harrington;-inkscape-font-specification:'Harrington, Normal';text-align:start;writing-mode:lr-tb;text-anchor:start;fill:#000000;fill-opacity:1"
           y="576.64374"
           x="1959.1296"
           id="tspan6156"
           sodipodi:role="line">A</tspan></text>
      <text
         xml:space="preserve"
         style="font-style:normal;font-weight:normal;font-size:358.61785889px;line-height:125%;font-family:sans-serif;letter-spacing:0px;word-spacing:0px;fill:#f0a129;fill-opacity:1;stroke:none;stroke-width:1px;stroke-linecap:butt;stroke-linejoin:miter;stroke-opacity:1"
         x="1959.1296"
         y="576.64374"
         id="text6158"
         sodipodi:linespacing="125%"><tspan
           sodipodi:role="line"
           id="tspan6160"
           x="1959.1296"
           y="576.64374"
           style="font-style:normal;font-variant:normal;font-weight:normal;font-stretch:normal;font-size:358.61785889px;line-height:125%;font-family:Harrington;-inkscape-font-specification:'Harrington, Normal';text-align:start;writing-mode:lr-tb;text-anchor:start;fill:#f0a129;fill-opacity:1">A</tspan></text>
    </g>
  </g>
</svg>
